# xmcd
#
# Track frame offsets: 
#        150
#        18708
#        39709
#        57360
#        73384
#        91369
#        110343
#        128302
#        145613
#        159358
#        173286
#        194265
#        207240
#        224435
#        237606
#        255322
#        265764
#        278222
#        292591
#        307911
#
# Disc length: 4320 seconds
#
# Revision: 0
# Processed by: cddbd v1.5.2PL0 Copyright (c) Steve Scherf et al.
# Submitted via: ExactAudioCopy v1.1
#
DISCID=1910de14
DTITLE=Various Artist - Radio 2 - 2 Dansant - CD 2
DYEAR=2012
DGENRE=Top 40
TTITLE0=Indeep - Last Night A D.J. Saved My Life
TTITLE1=Grace Jones - Pull Up To The Bumper
TTITLE2=Lipps, Inc. - Funkytown
TTITLE3=Mel and Kim - Showing Out
TTITLE4=Dr. Alban - Sing Hallelujah!
TTITLE5=MC Hammer - U Can't Touch This
TTITLE6=Foxy - Get Off
TTITLE7=T.C. Matic - Ugh Ugh
TTITLE8=The Selecter - On My Radio
TTITLE9=UB40 and Chrissie Hynde - I Got You Babe
TTITLE10=Iggy Pop - The Passenger
TTITLE11=The Jam - A Town Called Malice
TTITLE12=Mud - Tiger Feet
TTITLE13=The Romantics - What I Like About You
TTITLE14=Ram Jam - Black Betty
TTITLE15=Madness - One Step Beyond
TTITLE16=Bart Peeters and De Radio's - Swimming In The Pool
TTITLE17=Rednex - Cotton Eye Joe
TTITLE18=Noordkaap - Ik Hou Van U
TTITLE19=The Proclaimers - I'm Gonna Be (500 Miles)
EXTD=
EXTT0=
EXTT1=
EXTT2=
EXTT3=
EXTT4=
EXTT5=
EXTT6=
EXTT7=
EXTT8=
EXTT9=
EXTT10=
EXTT11=
EXTT12=
EXTT13=
EXTT14=
EXTT15=
EXTT16=
EXTT17=
EXTT18=
EXTT19=
PLAYORDER=
